<svg width="298" height="62" viewBox="0 0 298 62" fill="none" xmlns="http://www.w3.org/2000/svg">
<g clip-path="url(#clip0)">
<rect width="298" height="62" fill="none"/>
<path d="M27.3479 52.6956H9.33051V26.8869L31.7305 11.7913L54.1305 26.8869V60" stroke="#FEBB17" stroke-width="2"/>
<path d="M31.7304 4L3 22.9913V59.0261H33.1913V20.0696L48.287 30.2957V60" stroke="#F1F2F2" stroke-width="2"/>
<path d="M75.0054 55.6808C73.7214 55.6808 72.5574 55.4048 71.5134 54.8528C70.4814 54.2888 69.6654 53.5148 69.0654 52.5308C68.4774 51.5348 68.1834 50.4128 68.1834 49.1648C68.1834 47.9168 68.4774 46.8008 69.0654 45.8168C69.6654 44.8208 70.4814 44.0468 71.5134 43.4948C72.5574 42.9308 73.7274 42.6488 75.0234 42.6488C76.1154 42.6488 77.0994 42.8408 77.9754 43.2248C78.8634 43.6088 79.6074 44.1608 80.2074 44.8808L78.3354 46.6088C77.4834 45.6248 76.4274 45.1328 75.1674 45.1328C74.3874 45.1328 73.6914 45.3068 73.0794 45.6548C72.4674 45.9908 71.9874 46.4648 71.6394 47.0768C71.3034 47.6888 71.1354 48.3848 71.1354 49.1648C71.1354 49.9448 71.3034 50.6408 71.6394 51.2528C71.9874 51.8648 72.4674 52.3448 73.0794 52.6928C73.6914 53.0288 74.3874 53.1968 75.1674 53.1968C76.4274 53.1968 77.4834 52.6988 78.3354 51.7028L80.2074 53.4308C79.6074 54.1628 78.8634 54.7208 77.9754 55.1048C77.0874 55.4888 76.0974 55.6808 75.0054 55.6808ZM93.4149 55.6808C92.1069 55.6808 90.9249 55.3988 89.8689 54.8348C88.8249 54.2708 88.0029 53.4968 87.4029 52.5128C86.8149 51.5168 86.5209 50.4008 86.5209 49.1648C86.5209 47.9288 86.8149 46.8188 87.4029 45.8348C88.0029 44.8388 88.8249 44.0588 89.8689 43.4948C90.9249 42.9308 92.1069 42.6488 93.4149 42.6488C94.7229 42.6488 95.8989 42.9308 96.9429 43.4948C97.9869 44.0588 98.8089 44.8388 99.4089 45.8348C100.009 46.8188 100.309 47.9288 100.309 49.1648C100.309 50.4008 100.009 51.5168 99.4089 52.5128C98.8089 53.4968 97.9869 54.2708 96.9429 54.8348C95.8989 55.3988 94.7229 55.6808 93.4149 55.6808ZM93.4149 53.1968C94.1589 53.1968 94.8309 53.0288 95.4309 52.6928C96.0309 52.3448 96.4989 51.8648 96.8349 51.2528C97.1829 50.6408 97.3569 49.9448 97.3569 49.1648C97.3569 48.3848 97.1829 47.6888 96.8349 47.0768C96.4989 46.4648 96.0309 45.9908 95.4309 45.6548C94.8309 45.3068 94.1589 45.1328 93.4149 45.1328C92.6709 45.1328 91.9989 45.3068 91.3989 45.6548C90.7989 45.9908 90.3249 46.4648 89.9769 47.0768C89.6409 47.6888 89.4729 48.3848 89.4729 49.1648C89.4729 49.9448 89.6409 50.6408 89.9769 51.2528C90.3249 51.8648 90.7989 52.3448 91.3989 52.6928C91.9989 53.0288 92.6709 53.1968 93.4149 53.1968ZM119.456 42.8648V55.4648H117.062L110.78 47.8148V55.4648H107.9V42.8648H110.312L116.576 50.5148V42.8648H119.456ZM131.977 55.6808C130.981 55.6808 130.015 55.5488 129.079 55.2848C128.155 55.0088 127.411 54.6548 126.847 54.2228L127.837 52.0268C128.377 52.4228 129.019 52.7408 129.763 52.9808C130.507 53.2208 131.251 53.3408 131.995 53.3408C132.823 53.3408 133.435 53.2208 133.831 52.9808C134.227 52.7288 134.425 52.3988 134.425 51.9908C134.425 51.6908 134.305 51.4448 134.065 51.2528C133.837 51.0488 133.537 50.8868 133.165 50.7668C132.805 50.6468 132.313 50.5148 131.689 50.3708C130.729 50.1428 129.943 49.9148 129.331 49.6868C128.719 49.4588 128.191 49.0928 127.747 48.5888C127.315 48.0848 127.099 47.4128 127.099 46.5728C127.099 45.8408 127.297 45.1808 127.693 44.5928C128.089 43.9928 128.683 43.5188 129.475 43.1708C130.279 42.8228 131.257 42.6488 132.409 42.6488C133.213 42.6488 133.999 42.7448 134.767 42.9368C135.535 43.1288 136.207 43.4048 136.783 43.7648L135.883 45.9788C134.719 45.3188 133.555 44.9888 132.391 44.9888C131.575 44.9888 130.969 45.1208 130.573 45.3848C130.189 45.6488 129.997 45.9968 129.997 46.4288C129.997 46.8608 130.219 47.1848 130.663 47.4008C131.119 47.6048 131.809 47.8088 132.733 48.0128C133.693 48.2408 134.479 48.4688 135.091 48.6968C135.703 48.9248 136.225 49.2848 136.657 49.7768C137.101 50.2688 137.323 50.9348 137.323 51.7748C137.323 52.4948 137.119 53.1548 136.711 53.7548C136.315 54.3428 135.715 54.8108 134.911 55.1588C134.107 55.5068 133.129 55.6808 131.977 55.6808ZM147.15 45.2408H143.118V42.8648H154.098V45.2408H150.066V55.4648H147.15V45.2408ZM169.095 55.4648L166.665 51.9548H166.521H163.983V55.4648H161.067V42.8648H166.521C167.637 42.8648 168.603 43.0508 169.419 43.4228C170.247 43.7948 170.883 44.3228 171.327 45.0068C171.771 45.6908 171.993 46.5008 171.993 47.4368C171.993 48.3728 171.765 49.1828 171.309 49.8668C170.865 50.5388 170.229 51.0548 169.401 51.4148L172.227 55.4648H169.095ZM169.041 47.4368C169.041 46.7288 168.813 46.1888 168.357 45.8168C167.901 45.4328 167.235 45.2408 166.359 45.2408H163.983V49.6328H166.359C167.235 49.6328 167.901 49.4408 168.357 49.0568C168.813 48.6728 169.041 48.1328 169.041 47.4368ZM185.301 55.6808C183.501 55.6808 182.097 55.1828 181.089 54.1868C180.093 53.1908 179.595 51.7688 179.595 49.9208V42.8648H182.511V49.8128C182.511 52.0688 183.447 53.1968 185.319 53.1968C186.231 53.1968 186.927 52.9268 187.407 52.3868C187.887 51.8348 188.127 50.9768 188.127 49.8128V42.8648H191.007V49.9208C191.007 51.7688 190.503 53.1908 189.495 54.1868C188.499 55.1828 187.101 55.6808 185.301 55.6808ZM205.319 55.6808C204.035 55.6808 202.871 55.4048 201.827 54.8528C200.795 54.2888 199.979 53.5148 199.379 52.5308C198.791 51.5348 198.497 50.4128 198.497 49.1648C198.497 47.9168 198.791 46.8008 199.379 45.8168C199.979 44.8208 200.795 44.0468 201.827 43.4948C202.871 42.9308 204.041 42.6488 205.337 42.6488C206.429 42.6488 207.413 42.8408 208.289 43.2248C209.177 43.6088 209.921 44.1608 210.521 44.8808L208.649 46.6088C207.797 45.6248 206.741 45.1328 205.481 45.1328C204.701 45.1328 204.005 45.3068 203.393 45.6548C202.781 45.9908 202.301 46.4648 201.953 47.0768C201.617 47.6888 201.449 48.3848 201.449 49.1648C201.449 49.9448 201.617 50.6408 201.953 51.2528C202.301 51.8648 202.781 52.3448 203.393 52.6928C204.005 53.0288 204.701 53.1968 205.481 53.1968C206.741 53.1968 207.797 52.6988 208.649 51.7028L210.521 53.4308C209.921 54.1628 209.177 54.7208 208.289 55.1048C207.401 55.4888 206.411 55.6808 205.319 55.6808ZM204.347 59.6408C204.035 59.6408 203.729 59.6048 203.429 59.5328C203.129 59.4728 202.877 59.3828 202.673 59.2628L203.105 58.0568C203.489 58.2368 203.879 58.3268 204.275 58.3268C204.899 58.3268 205.211 58.1348 205.211 57.7508C205.211 57.4028 204.917 57.2288 204.329 57.2288H203.717L204.185 55.3208H205.679L205.427 56.3648C205.955 56.4248 206.345 56.5868 206.597 56.8508C206.861 57.1268 206.993 57.4628 206.993 57.8588C206.993 58.4108 206.753 58.8428 206.273 59.1548C205.793 59.4788 205.151 59.6408 204.347 59.6408ZM223.729 55.6808C222.421 55.6808 221.239 55.3988 220.183 54.8348C219.139 54.2708 218.317 53.4968 217.717 52.5128C217.129 51.5168 216.835 50.4008 216.835 49.1648C216.835 47.9288 217.129 46.8188 217.717 45.8348C218.317 44.8388 219.139 44.0588 220.183 43.4948C221.239 42.9308 222.421 42.6488 223.729 42.6488C225.037 42.6488 226.213 42.9308 227.257 43.4948C228.301 44.0588 229.123 44.8388 229.723 45.8348C230.323 46.8188 230.623 47.9288 230.623 49.1648C230.623 50.4008 230.323 51.5168 229.723 52.5128C229.123 53.4968 228.301 54.2708 227.257 54.8348C226.213 55.3988 225.037 55.6808 223.729 55.6808ZM223.729 53.1968C224.473 53.1968 225.145 53.0288 225.745 52.6928C226.345 52.3448 226.813 51.8648 227.149 51.2528C227.497 50.6408 227.671 49.9448 227.671 49.1648C227.671 48.3848 227.497 47.6888 227.149 47.0768C226.813 46.4648 226.345 45.9908 225.745 45.6548C225.145 45.3068 224.473 45.1328 223.729 45.1328C222.985 45.1328 222.313 45.3068 221.713 45.6548C221.113 45.9908 220.639 46.4648 220.291 47.0768C219.955 47.6888 219.787 48.3848 219.787 49.1648C219.787 49.9448 219.955 50.6408 220.291 51.2528C220.639 51.8648 221.113 52.3448 221.713 52.6928C222.313 53.0288 222.985 53.1968 223.729 53.1968ZM225.079 41.8928C224.755 41.8928 224.467 41.8328 224.215 41.7128C223.975 41.5808 223.705 41.4068 223.405 41.1908C223.213 41.0468 223.051 40.9388 222.919 40.8668C222.799 40.7948 222.679 40.7588 222.559 40.7588C222.307 40.7588 222.103 40.8488 221.947 41.0288C221.791 41.1968 221.707 41.4428 221.695 41.7668H220.273C220.297 40.9628 220.495 40.3268 220.867 39.8588C221.251 39.3788 221.755 39.1388 222.379 39.1388C222.691 39.1388 222.967 39.2048 223.207 39.3368C223.459 39.4568 223.741 39.6308 224.053 39.8588C224.245 40.0028 224.401 40.1108 224.521 40.1828C224.653 40.2548 224.779 40.2908 224.899 40.2908C225.139 40.2908 225.337 40.2068 225.493 40.0388C225.661 39.8588 225.751 39.6188 225.763 39.3188H227.185C227.161 40.0988 226.957 40.7228 226.573 41.1908C226.201 41.6588 225.703 41.8928 225.079 41.8928ZM247.97 53.1248V55.4648H238.214V42.8648H247.736V45.2048H241.112V47.9408H246.962V50.2088H241.112V53.1248H247.97ZM259.83 55.6808C258.834 55.6808 257.868 55.5488 256.932 55.2848C256.008 55.0088 255.264 54.6548 254.7 54.2228L255.69 52.0268C256.23 52.4228 256.872 52.7408 257.616 52.9808C258.36 53.2208 259.104 53.3408 259.848 53.3408C260.676 53.3408 261.288 53.2208 261.684 52.9808C262.08 52.7288 262.278 52.3988 262.278 51.9908C262.278 51.6908 262.158 51.4448 261.918 51.2528C261.69 51.0488 261.39 50.8868 261.018 50.7668C260.658 50.6468 260.166 50.5148 259.542 50.3708C258.582 50.1428 257.796 49.9148 257.184 49.6868C256.572 49.4588 256.044 49.0928 255.6 48.5888C255.168 48.0848 254.952 47.4128 254.952 46.5728C254.952 45.8408 255.15 45.1808 255.546 44.5928C255.942 43.9928 256.536 43.5188 257.328 43.1708C258.132 42.8228 259.11 42.6488 260.262 42.6488C261.066 42.6488 261.852 42.7448 262.62 42.9368C263.388 43.1288 264.06 43.4048 264.636 43.7648L263.736 45.9788C262.572 45.3188 261.408 44.9888 260.244 44.9888C259.428 44.9888 258.822 45.1208 258.426 45.3848C258.042 45.6488 257.85 45.9968 257.85 46.4288C257.85 46.8608 258.072 47.1848 258.516 47.4008C258.972 47.6048 259.662 47.8088 260.586 48.0128C261.546 48.2408 262.332 48.4688 262.944 48.6968C263.556 48.9248 264.078 49.2848 264.51 49.7768C264.954 50.2688 265.176 50.9348 265.176 51.7748C265.176 52.4948 264.972 53.1548 264.564 53.7548C264.168 54.3428 263.568 54.8108 262.764 55.1588C261.96 55.5068 260.982 55.6808 259.83 55.6808Z" fill="#FEBB17"/>
<path d="M77.9091 12.6C79.8504 12.6 81.5357 12.92 82.9651 13.56C84.4157 14.2 85.5251 15.1173 86.2931 16.312C87.0611 17.5067 87.4451 18.9253 87.4451 20.568C87.4451 22.1893 87.0611 23.608 86.2931 24.824C85.5251 26.0187 84.4157 26.936 82.9651 27.576C81.5357 28.216 79.8504 28.536 77.9091 28.536H72.8531V35H68.6931V12.6H77.9091ZM77.7171 25.016C79.5304 25.016 80.9064 24.632 81.8451 23.864C82.7837 23.096 83.2531 21.9973 83.2531 20.568C83.2531 19.1387 82.7837 18.04 81.8451 17.272C80.9064 16.504 79.5304 16.12 77.7171 16.12H72.8531V25.016H77.7171ZM95.0271 20.408C96.1791 18.616 98.2057 17.72 101.107 17.72V21.528C100.766 21.464 100.456 21.432 100.179 21.432C98.6217 21.432 97.4057 21.8907 96.5311 22.808C95.6564 23.704 95.2191 25.0053 95.2191 26.712V35H91.2191V17.912H95.0271V20.408ZM120.568 26.552C120.568 26.8293 120.547 27.224 120.504 27.736H107.096C107.331 28.9947 107.939 29.9973 108.92 30.744C109.923 31.4693 111.16 31.832 112.632 31.832C114.509 31.832 116.056 31.2133 117.272 29.976L119.416 32.44C118.648 33.3573 117.677 34.0507 116.504 34.52C115.331 34.9893 114.008 35.224 112.536 35.224C110.659 35.224 109.005 34.8507 107.576 34.104C106.147 33.3573 105.037 32.3227 104.248 31C103.48 29.656 103.096 28.1413 103.096 26.456C103.096 24.792 103.469 23.2987 104.216 21.976C104.984 20.632 106.04 19.5867 107.384 18.84C108.728 18.0933 110.243 17.72 111.928 17.72C113.592 17.72 115.075 18.0933 116.376 18.84C117.699 19.5653 118.723 20.6 119.448 21.944C120.195 23.2667 120.568 24.8027 120.568 26.552ZM111.928 20.92C110.648 20.92 109.56 21.304 108.664 22.072C107.789 22.8187 107.256 23.8213 107.064 25.08H116.76C116.589 23.8427 116.067 22.84 115.192 22.072C114.317 21.304 113.229 20.92 111.928 20.92ZM113.464 11.192H118.168L112.6 15.576H109.144L113.464 11.192ZM124.019 24.44H132.819V27.768H124.019V24.44ZM158.315 35L158.283 20.152L150.923 32.44H149.067L141.707 20.344V35H137.739V12.6H141.163L150.059 27.448L158.795 12.6H162.219L162.251 35H158.315ZM175.758 35.224C174.03 35.224 172.472 34.8507 171.086 34.104C169.699 33.3573 168.611 32.3227 167.822 31C167.054 29.656 166.67 28.1413 166.67 26.456C166.67 24.7707 167.054 23.2667 167.822 21.944C168.611 20.6213 169.699 19.5867 171.086 18.84C172.472 18.0933 174.03 17.72 175.758 17.72C177.507 17.72 179.075 18.0933 180.462 18.84C181.848 19.5867 182.926 20.6213 183.694 21.944C184.483 23.2667 184.878 24.7707 184.878 26.456C184.878 28.1413 184.483 29.656 183.694 31C182.926 32.3227 181.848 33.3573 180.462 34.104C179.075 34.8507 177.507 35.224 175.758 35.224ZM175.758 31.8C177.23 31.8 178.446 31.3093 179.406 30.328C180.366 29.3467 180.846 28.056 180.846 26.456C180.846 24.856 180.366 23.5653 179.406 22.584C178.446 21.6027 177.23 21.112 175.758 21.112C174.286 21.112 173.07 21.6027 172.11 22.584C171.171 23.5653 170.702 24.856 170.702 26.456C170.702 28.056 171.171 29.3467 172.11 30.328C173.07 31.3093 174.286 31.8 175.758 31.8ZM188.863 11.256H192.863V35H188.863V11.256ZM215.009 11.256V35H211.169V32.792C210.507 33.6027 209.686 34.2107 208.705 34.616C207.745 35.0213 206.678 35.224 205.505 35.224C203.862 35.224 202.379 34.8613 201.057 34.136C199.755 33.4107 198.731 32.3867 197.985 31.064C197.238 29.72 196.865 28.184 196.865 26.456C196.865 24.728 197.238 23.2027 197.985 21.88C198.731 20.5573 199.755 19.5333 201.057 18.808C202.379 18.0827 203.862 17.72 205.505 17.72C206.635 17.72 207.67 17.912 208.609 18.296C209.547 18.68 210.347 19.256 211.009 20.024V11.256H215.009ZM205.985 31.8C206.945 31.8 207.809 31.5867 208.577 31.16C209.345 30.712 209.953 30.0827 210.401 29.272C210.849 28.4613 211.073 27.5227 211.073 26.456C211.073 25.3893 210.849 24.4507 210.401 23.64C209.953 22.8293 209.345 22.2107 208.577 21.784C207.809 21.336 206.945 21.112 205.985 21.112C205.025 21.112 204.161 21.336 203.393 21.784C202.625 22.2107 202.017 22.8293 201.569 23.64C201.121 24.4507 200.897 25.3893 200.897 26.456C200.897 27.5227 201.121 28.4613 201.569 29.272C202.017 30.0827 202.625 30.712 203.393 31.16C204.161 31.5867 205.025 31.8 205.985 31.8ZM226.93 17.72C229.447 17.72 231.367 18.328 232.69 19.544C234.034 20.7387 234.706 22.552 234.706 24.984V35H230.93V32.92C230.439 33.6667 229.735 34.2427 228.818 34.648C227.922 35.032 226.834 35.224 225.554 35.224C224.274 35.224 223.154 35.0107 222.194 34.584C221.234 34.136 220.487 33.528 219.954 32.76C219.442 31.9707 219.186 31.0853 219.186 30.104C219.186 28.568 219.751 27.3413 220.882 26.424C222.034 25.4853 223.836 25.016 226.29 25.016H230.706V24.76C230.706 23.5653 230.343 22.648 229.618 22.008C228.914 21.368 227.858 21.048 226.45 21.048C225.49 21.048 224.54 21.1973 223.602 21.496C222.684 21.7947 221.906 22.2107 221.266 22.744L219.698 19.832C220.594 19.1493 221.671 18.6267 222.93 18.264C224.188 17.9013 225.522 17.72 226.93 17.72ZM226.386 32.312C227.388 32.312 228.274 32.088 229.042 31.64C229.831 31.1707 230.386 30.5093 230.706 29.656V27.672H226.578C224.274 27.672 223.122 28.4293 223.122 29.944C223.122 30.6693 223.41 31.2453 223.986 31.672C224.562 32.0987 225.362 32.312 226.386 32.312ZM256.891 11.256V35H253.051V32.792C252.39 33.6027 251.569 34.2107 250.587 34.616C249.627 35.0213 248.561 35.224 247.387 35.224C245.745 35.224 244.262 34.8613 242.939 34.136C241.638 33.4107 240.614 32.3867 239.867 31.064C239.121 29.72 238.747 28.184 238.747 26.456C238.747 24.728 239.121 23.2027 239.867 21.88C240.614 20.5573 241.638 19.5333 242.939 18.808C244.262 18.0827 245.745 17.72 247.387 17.72C248.518 17.72 249.553 17.912 250.491 18.296C251.43 18.68 252.23 19.256 252.891 20.024V11.256H256.891ZM247.867 31.8C248.827 31.8 249.691 31.5867 250.459 31.16C251.227 30.712 251.835 30.0827 252.283 29.272C252.731 28.4613 252.955 27.5227 252.955 26.456C252.955 25.3893 252.731 24.4507 252.283 23.64C251.835 22.8293 251.227 22.2107 250.459 21.784C249.691 21.336 248.827 21.112 247.867 21.112C246.907 21.112 246.043 21.336 245.275 21.784C244.507 22.2107 243.899 22.8293 243.451 23.64C243.003 24.4507 242.779 25.3893 242.779 26.456C242.779 27.5227 243.003 28.4613 243.451 29.272C243.899 30.0827 244.507 30.712 245.275 31.16C246.043 31.5867 246.907 31.8 247.867 31.8ZM269.964 35.224C268.236 35.224 266.679 34.8507 265.292 34.104C263.905 33.3573 262.817 32.3227 262.028 31C261.26 29.656 260.876 28.1413 260.876 26.456C260.876 24.7707 261.26 23.2667 262.028 21.944C262.817 20.6213 263.905 19.5867 265.292 18.84C266.679 18.0933 268.236 17.72 269.964 17.72C271.713 17.72 273.281 18.0933 274.668 18.84C276.055 19.5867 277.132 20.6213 277.9 21.944C278.689 23.2667 279.084 24.7707 279.084 26.456C279.084 28.1413 278.689 29.656 277.9 31C277.132 32.3227 276.055 33.3573 274.668 34.104C273.281 34.8507 271.713 35.224 269.964 35.224ZM269.964 31.8C271.436 31.8 272.652 31.3093 273.612 30.328C274.572 29.3467 275.052 28.056 275.052 26.456C275.052 24.856 274.572 23.5653 273.612 22.584C272.652 21.6027 271.436 21.112 269.964 21.112C268.492 21.112 267.276 21.6027 266.316 22.584C265.377 23.5653 264.908 24.856 264.908 26.456C264.908 28.056 265.377 29.3467 266.316 30.328C267.276 31.3093 268.492 31.8 269.964 31.8ZM288.349 35.224C286.962 35.224 285.608 35.0427 284.285 34.68C282.962 34.3173 281.906 33.8587 281.117 33.304L282.653 30.264C283.421 30.776 284.338 31.192 285.405 31.512C286.493 31.8107 287.56 31.96 288.605 31.96C290.994 31.96 292.189 31.3307 292.189 30.072C292.189 29.4747 291.88 29.0587 291.261 28.824C290.664 28.5893 289.693 28.3653 288.349 28.152C286.941 27.9387 285.789 27.6933 284.893 27.416C284.018 27.1387 283.25 26.6587 282.589 25.976C281.949 25.272 281.629 24.3013 281.629 23.064C281.629 21.4427 282.301 20.152 283.645 19.192C285.01 18.2107 286.845 17.72 289.149 17.72C290.322 17.72 291.496 17.8587 292.669 18.136C293.842 18.392 294.802 18.744 295.549 19.192L294.013 22.232C292.562 21.3787 290.93 20.952 289.117 20.952C287.944 20.952 287.048 21.1333 286.429 21.496C285.832 21.8373 285.533 22.296 285.533 22.872C285.533 23.512 285.853 23.9707 286.493 24.248C287.154 24.504 288.168 24.7493 289.533 24.984C290.898 25.1973 292.018 25.4427 292.893 25.72C293.768 25.9973 294.514 26.4667 295.133 27.128C295.773 27.7893 296.093 28.728 296.093 29.944C296.093 31.544 295.4 32.824 294.013 33.784C292.626 34.744 290.738 35.224 288.349 35.224Z" fill="#F1F2F2"/>
</g>
<defs>
<clipPath id="clip0">
<rect width="298" height="62" fill="white"/>
</clipPath>
</defs>
</svg>
