<svg width="149" height="31" viewBox="0 0 149 31" fill="none" xmlns="http://www.w3.org/2000/svg">
<g clip-path="url(#clip0)">
<rect width="149" height="31" fill="none"/>
<path d="M14.1739 25.3478H5.16525V12.4435L16.3653 4.89565L27.5653 12.4435V29" stroke="#FEBB17" stroke-width="2"/>
<path d="M16.3652 1L2 10.4957V28.513H17.0957V9.03478L24.6435 14.1478V29" stroke="#F1F2F2" stroke-width="2"/>
<path d="M38.0027 26.3404C37.3607 26.3404 36.7787 26.2024 36.2567 25.9264C35.7407 25.6444 35.3327 25.2574 35.0327 24.7654C34.7387 24.2674 34.5917 23.7064 34.5917 23.0824C34.5917 22.4584 34.7387 21.9004 35.0327 21.4084C35.3327 20.9104 35.7407 20.5234 36.2567 20.2474C36.7787 19.9654 37.3637 19.8244 38.0117 19.8244C38.5577 19.8244 39.0497 19.9204 39.4877 20.1124C39.9317 20.3044 40.3037 20.5804 40.6037 20.9404L39.6677 21.8044C39.2417 21.3124 38.7137 21.0664 38.0837 21.0664C37.6937 21.0664 37.3457 21.1534 37.0397 21.3274C36.7337 21.4954 36.4937 21.7324 36.3197 22.0384C36.1517 22.3444 36.0677 22.6924 36.0677 23.0824C36.0677 23.4724 36.1517 23.8204 36.3197 24.1264C36.4937 24.4324 36.7337 24.6724 37.0397 24.8464C37.3457 25.0144 37.6937 25.0984 38.0837 25.0984C38.7137 25.0984 39.2417 24.8494 39.6677 24.3514L40.6037 25.2154C40.3037 25.5814 39.9317 25.8604 39.4877 26.0524C39.0437 26.2444 38.5487 26.3404 38.0027 26.3404ZM47.2074 26.3404C46.5534 26.3404 45.9624 26.1994 45.4344 25.9174C44.9124 25.6354 44.5014 25.2484 44.2014 24.7564C43.9074 24.2584 43.7604 23.7004 43.7604 23.0824C43.7604 22.4644 43.9074 21.9094 44.2014 21.4174C44.5014 20.9194 44.9124 20.5294 45.4344 20.2474C45.9624 19.9654 46.5534 19.8244 47.2074 19.8244C47.8614 19.8244 48.4494 19.9654 48.9714 20.2474C49.4934 20.5294 49.9044 20.9194 50.2044 21.4174C50.5044 21.9094 50.6544 22.4644 50.6544 23.0824C50.6544 23.7004 50.5044 24.2584 50.2044 24.7564C49.9044 25.2484 49.4934 25.6354 48.9714 25.9174C48.4494 26.1994 47.8614 26.3404 47.2074 26.3404ZM47.2074 25.0984C47.5794 25.0984 47.9154 25.0144 48.2154 24.8464C48.5154 24.6724 48.7494 24.4324 48.9174 24.1264C49.0914 23.8204 49.1784 23.4724 49.1784 23.0824C49.1784 22.6924 49.0914 22.3444 48.9174 22.0384C48.7494 21.7324 48.5154 21.4954 48.2154 21.3274C47.9154 21.1534 47.5794 21.0664 47.2074 21.0664C46.8354 21.0664 46.4994 21.1534 46.1994 21.3274C45.8994 21.4954 45.6624 21.7324 45.4884 22.0384C45.3204 22.3444 45.2364 22.6924 45.2364 23.0824C45.2364 23.4724 45.3204 23.8204 45.4884 24.1264C45.6624 24.4324 45.8994 24.6724 46.1994 24.8464C46.4994 25.0144 46.8354 25.0984 47.2074 25.0984ZM60.2282 19.9324V26.2324H59.0312L55.8902 22.4074V26.2324H54.4502V19.9324H55.6562L58.7882 23.7574V19.9324H60.2282ZM66.4887 26.3404C65.9907 26.3404 65.5077 26.2744 65.0397 26.1424C64.5777 26.0044 64.2057 25.8274 63.9237 25.6114L64.4187 24.5134C64.6887 24.7114 65.0097 24.8704 65.3817 24.9904C65.7537 25.1104 66.1257 25.1704 66.4977 25.1704C66.9117 25.1704 67.2177 25.1104 67.4157 24.9904C67.6137 24.8644 67.7127 24.6994 67.7127 24.4954C67.7127 24.3454 67.6527 24.2224 67.5327 24.1264C67.4187 24.0244 67.2687 23.9434 67.0827 23.8834C66.9027 23.8234 66.6567 23.7574 66.3447 23.6854C65.8647 23.5714 65.4717 23.4574 65.1657 23.3434C64.8597 23.2294 64.5957 23.0464 64.3737 22.7944C64.1577 22.5424 64.0497 22.2064 64.0497 21.7864C64.0497 21.4204 64.1487 21.0904 64.3467 20.7964C64.5447 20.4964 64.8417 20.2594 65.2377 20.0854C65.6397 19.9114 66.1287 19.8244 66.7047 19.8244C67.1067 19.8244 67.4997 19.8724 67.8837 19.9684C68.2677 20.0644 68.6037 20.2024 68.8917 20.3824L68.4417 21.4894C67.8597 21.1594 67.2777 20.9944 66.6957 20.9944C66.2877 20.9944 65.9847 21.0604 65.7867 21.1924C65.5947 21.3244 65.4987 21.4984 65.4987 21.7144C65.4987 21.9304 65.6097 22.0924 65.8317 22.2004C66.0597 22.3024 66.4047 22.4044 66.8667 22.5064C67.3467 22.6204 67.7397 22.7344 68.0457 22.8484C68.3517 22.9624 68.6127 23.1424 68.8287 23.3884C69.0507 23.6344 69.1617 23.9674 69.1617 24.3874C69.1617 24.7474 69.0597 25.0774 68.8557 25.3774C68.6577 25.6714 68.3577 25.9054 67.9557 26.0794C67.5537 26.2534 67.0647 26.3404 66.4887 26.3404ZM74.0751 21.1204H72.0591V19.9324H77.5491V21.1204H75.5331V26.2324H74.0751V21.1204ZM85.0476 26.2324L83.8326 24.4774H83.7606H82.4916V26.2324H81.0336V19.9324H83.7606C84.3186 19.9324 84.8016 20.0254 85.2096 20.2114C85.6236 20.3974 85.9416 20.6614 86.1636 21.0034C86.3856 21.3454 86.4966 21.7504 86.4966 22.2184C86.4966 22.6864 86.3826 23.0914 86.1546 23.4334C85.9326 23.7694 85.6146 24.0274 85.2006 24.2074L86.6136 26.2324H85.0476ZM85.0206 22.2184C85.0206 21.8644 84.9066 21.5944 84.6786 21.4084C84.4506 21.2164 84.1176 21.1204 83.6796 21.1204H82.4916V23.3164H83.6796C84.1176 23.3164 84.4506 23.2204 84.6786 23.0284C84.9066 22.8364 85.0206 22.5664 85.0206 22.2184ZM93.1507 26.3404C92.2507 26.3404 91.5487 26.0914 91.0447 25.5934C90.5467 25.0954 90.2977 24.3844 90.2977 23.4604V19.9324H91.7557V23.4064C91.7557 24.5344 92.2237 25.0984 93.1597 25.0984C93.6157 25.0984 93.9637 24.9634 94.2037 24.6934C94.4437 24.4174 94.5637 23.9884 94.5637 23.4064V19.9324H96.0037V23.4604C96.0037 24.3844 95.7517 25.0954 95.2477 25.5934C94.7497 26.0914 94.0507 26.3404 93.1507 26.3404ZM103.16 26.3404C102.518 26.3404 101.936 26.2024 101.414 25.9264C100.898 25.6444 100.49 25.2574 100.19 24.7654C99.8955 24.2674 99.7485 23.7064 99.7485 23.0824C99.7485 22.4584 99.8955 21.9004 100.19 21.4084C100.49 20.9104 100.898 20.5234 101.414 20.2474C101.936 19.9654 102.521 19.8244 103.169 19.8244C103.715 19.8244 104.207 19.9204 104.645 20.1124C105.089 20.3044 105.461 20.5804 105.761 20.9404L104.825 21.8044C104.399 21.3124 103.871 21.0664 103.241 21.0664C102.851 21.0664 102.503 21.1534 102.197 21.3274C101.891 21.4954 101.651 21.7324 101.477 22.0384C101.309 22.3444 101.225 22.6924 101.225 23.0824C101.225 23.4724 101.309 23.8204 101.477 24.1264C101.651 24.4324 101.891 24.6724 102.197 24.8464C102.503 25.0144 102.851 25.0984 103.241 25.0984C103.871 25.0984 104.399 24.8494 104.825 24.3514L105.761 25.2154C105.461 25.5814 105.089 25.8604 104.645 26.0524C104.201 26.2444 103.706 26.3404 103.16 26.3404ZM102.674 28.3204C102.518 28.3204 102.365 28.3024 102.215 28.2664C102.065 28.2364 101.939 28.1914 101.837 28.1314L102.053 27.5284C102.245 27.6184 102.44 27.6634 102.638 27.6634C102.95 27.6634 103.106 27.5674 103.106 27.3754C103.106 27.2014 102.959 27.1144 102.665 27.1144H102.359L102.593 26.1604H103.34L103.214 26.6824C103.478 26.7124 103.673 26.7934 103.799 26.9254C103.931 27.0634 103.997 27.2314 103.997 27.4294C103.997 27.7054 103.877 27.9214 103.637 28.0774C103.397 28.2394 103.076 28.3204 102.674 28.3204ZM112.364 26.3404C111.71 26.3404 111.119 26.1994 110.591 25.9174C110.069 25.6354 109.658 25.2484 109.358 24.7564C109.064 24.2584 108.917 23.7004 108.917 23.0824C108.917 22.4644 109.064 21.9094 109.358 21.4174C109.658 20.9194 110.069 20.5294 110.591 20.2474C111.119 19.9654 111.71 19.8244 112.364 19.8244C113.018 19.8244 113.606 19.9654 114.128 20.2474C114.65 20.5294 115.061 20.9194 115.361 21.4174C115.661 21.9094 115.811 22.4644 115.811 23.0824C115.811 23.7004 115.661 24.2584 115.361 24.7564C115.061 25.2484 114.65 25.6354 114.128 25.9174C113.606 26.1994 113.018 26.3404 112.364 26.3404ZM112.364 25.0984C112.736 25.0984 113.072 25.0144 113.372 24.8464C113.672 24.6724 113.906 24.4324 114.074 24.1264C114.248 23.8204 114.335 23.4724 114.335 23.0824C114.335 22.6924 114.248 22.3444 114.074 22.0384C113.906 21.7324 113.672 21.4954 113.372 21.3274C113.072 21.1534 112.736 21.0664 112.364 21.0664C111.992 21.0664 111.656 21.1534 111.356 21.3274C111.056 21.4954 110.819 21.7324 110.645 22.0384C110.477 22.3444 110.393 22.6924 110.393 23.0824C110.393 23.4724 110.477 23.8204 110.645 24.1264C110.819 24.4324 111.056 24.6724 111.356 24.8464C111.656 25.0144 111.992 25.0984 112.364 25.0984ZM113.039 19.4464C112.877 19.4464 112.733 19.4164 112.607 19.3564C112.487 19.2904 112.352 19.2034 112.202 19.0954C112.106 19.0234 112.025 18.9694 111.959 18.9334C111.899 18.8974 111.839 18.8794 111.779 18.8794C111.653 18.8794 111.551 18.9244 111.473 19.0144C111.395 19.0984 111.353 19.2214 111.347 19.3834H110.636C110.648 18.9814 110.747 18.6634 110.933 18.4294C111.125 18.1894 111.377 18.0694 111.689 18.0694C111.845 18.0694 111.983 18.1024 112.103 18.1684C112.229 18.2284 112.37 18.3154 112.526 18.4294C112.622 18.5014 112.7 18.5554 112.76 18.5914C112.826 18.6274 112.889 18.6454 112.949 18.6454C113.069 18.6454 113.168 18.6034 113.246 18.5194C113.33 18.4294 113.375 18.3094 113.381 18.1594H114.092C114.08 18.5494 113.978 18.8614 113.786 19.0954C113.6 19.3294 113.351 19.4464 113.039 19.4464ZM124.485 25.0624V26.2324H119.607V19.9324H124.368V21.1024H121.056V22.4704H123.981V23.6044H121.056V25.0624H124.485ZM130.415 26.3404C129.917 26.3404 129.434 26.2744 128.966 26.1424C128.504 26.0044 128.132 25.8274 127.85 25.6114L128.345 24.5134C128.615 24.7114 128.936 24.8704 129.308 24.9904C129.68 25.1104 130.052 25.1704 130.424 25.1704C130.838 25.1704 131.144 25.1104 131.342 24.9904C131.54 24.8644 131.639 24.6994 131.639 24.4954C131.639 24.3454 131.579 24.2224 131.459 24.1264C131.345 24.0244 131.195 23.9434 131.009 23.8834C130.829 23.8234 130.583 23.7574 130.271 23.6854C129.791 23.5714 129.398 23.4574 129.092 23.3434C128.786 23.2294 128.522 23.0464 128.3 22.7944C128.084 22.5424 127.976 22.2064 127.976 21.7864C127.976 21.4204 128.075 21.0904 128.273 20.7964C128.471 20.4964 128.768 20.2594 129.164 20.0854C129.566 19.9114 130.055 19.8244 130.631 19.8244C131.033 19.8244 131.426 19.8724 131.81 19.9684C132.194 20.0644 132.53 20.2024 132.818 20.3824L132.368 21.4894C131.786 21.1594 131.204 20.9944 130.622 20.9944C130.214 20.9944 129.911 21.0604 129.713 21.1924C129.521 21.3244 129.425 21.4984 129.425 21.7144C129.425 21.9304 129.536 22.0924 129.758 22.2004C129.986 22.3024 130.331 22.4044 130.793 22.5064C131.273 22.6204 131.666 22.7344 131.972 22.8484C132.278 22.9624 132.539 23.1424 132.755 23.3884C132.977 23.6344 133.088 23.9674 133.088 24.3874C133.088 24.7474 132.986 25.0774 132.782 25.3774C132.584 25.6714 132.284 25.9054 131.882 26.0794C131.48 26.2534 130.991 26.3404 130.415 26.3404Z" fill="#FEBB17"/>
<path d="M39.4545 4.8C40.4252 4.8 41.2679 4.96 41.9825 5.28C42.7079 5.6 43.2625 6.05867 43.6465 6.656C44.0305 7.25333 44.2225 7.96267 44.2225 8.784C44.2225 9.59467 44.0305 10.304 43.6465 10.912C43.2625 11.5093 42.7079 11.968 41.9825 12.288C41.2679 12.608 40.4252 12.768 39.4545 12.768H36.9265V16H34.8465V4.8H39.4545ZM39.3585 11.008C40.2652 11.008 40.9532 10.816 41.4225 10.432C41.8919 10.048 42.1265 9.49867 42.1265 8.784C42.1265 8.06933 41.8919 7.52 41.4225 7.136C40.9532 6.752 40.2652 6.56 39.3585 6.56H36.9265V11.008H39.3585ZM48.0135 8.704C48.5895 7.808 49.6029 7.36 51.0535 7.36V9.264C50.8829 9.232 50.7282 9.216 50.5895 9.216C49.8109 9.216 49.2029 9.44533 48.7655 9.904C48.3282 10.352 48.1095 11.0027 48.1095 11.856V16H46.1095V7.456H48.0135V8.704ZM60.784 11.776C60.784 11.9147 60.7734 12.112 60.752 12.368H54.048C54.1654 12.9973 54.4694 13.4987 54.96 13.872C55.4614 14.2347 56.08 14.416 56.816 14.416C57.7547 14.416 58.528 14.1067 59.136 13.488L60.208 14.72C59.824 15.1787 59.3387 15.5253 58.752 15.76C58.1654 15.9947 57.504 16.112 56.768 16.112C55.8294 16.112 55.0027 15.9253 54.288 15.552C53.5734 15.1787 53.0187 14.6613 52.624 14C52.24 13.328 52.048 12.5707 52.048 11.728C52.048 10.896 52.2347 10.1493 52.608 9.488C52.992 8.816 53.52 8.29333 54.192 7.92C54.864 7.54667 55.6214 7.36 56.464 7.36C57.296 7.36 58.0374 7.54667 58.688 7.92C59.3494 8.28267 59.8614 8.8 60.224 9.472C60.5974 10.1333 60.784 10.9013 60.784 11.776ZM56.464 8.96C55.824 8.96 55.28 9.152 54.832 9.536C54.3947 9.90933 54.128 10.4107 54.032 11.04H58.88C58.7947 10.4213 58.5334 9.92 58.096 9.536C57.6587 9.152 57.1147 8.96 56.464 8.96ZM57.232 4.096H59.584L56.8 6.288H55.072L57.232 4.096ZM62.5094 10.72H66.9094V12.384H62.5094V10.72ZM79.6577 16L79.6417 8.576L75.9617 14.72H75.0337L71.3537 8.672V16H69.3697V4.8H71.0817L75.5297 12.224L79.8977 4.8H81.6097L81.6257 16H79.6577ZM88.3789 16.112C87.5149 16.112 86.7362 15.9253 86.0429 15.552C85.3496 15.1787 84.8056 14.6613 84.4109 14C84.0269 13.328 83.8349 12.5707 83.8349 11.728C83.8349 10.8853 84.0269 10.1333 84.4109 9.472C84.8056 8.81067 85.3496 8.29333 86.0429 7.92C86.7362 7.54667 87.5149 7.36 88.3789 7.36C89.2536 7.36 90.0376 7.54667 90.7309 7.92C91.4242 8.29333 91.9629 8.81067 92.3469 9.472C92.7416 10.1333 92.9389 10.8853 92.9389 11.728C92.9389 12.5707 92.7416 13.328 92.3469 14C91.9629 14.6613 91.4242 15.1787 90.7309 15.552C90.0376 15.9253 89.2536 16.112 88.3789 16.112ZM88.3789 14.4C89.1149 14.4 89.7229 14.1547 90.2029 13.664C90.6829 13.1733 90.9229 12.528 90.9229 11.728C90.9229 10.928 90.6829 10.2827 90.2029 9.792C89.7229 9.30133 89.1149 9.056 88.3789 9.056C87.6429 9.056 87.0349 9.30133 86.5549 9.792C86.0856 10.2827 85.8509 10.928 85.8509 11.728C85.8509 12.528 86.0856 13.1733 86.5549 13.664C87.0349 14.1547 87.6429 14.4 88.3789 14.4ZM94.9314 4.128H96.9314V16H94.9314V4.128ZM108.004 4.128V16H106.084V14.896C105.754 15.3013 105.343 15.6053 104.852 15.808C104.372 16.0107 103.839 16.112 103.252 16.112C102.431 16.112 101.69 15.9307 101.028 15.568C100.378 15.2053 99.8657 14.6933 99.4924 14.032C99.1191 13.36 98.9324 12.592 98.9324 11.728C98.9324 10.864 99.1191 10.1013 99.4924 9.44C99.8657 8.77867 100.378 8.26667 101.028 7.904C101.69 7.54133 102.431 7.36 103.252 7.36C103.818 7.36 104.335 7.456 104.804 7.648C105.274 7.84 105.674 8.128 106.004 8.512V4.128H108.004ZM103.492 14.4C103.972 14.4 104.404 14.2933 104.788 14.08C105.172 13.856 105.476 13.5413 105.7 13.136C105.924 12.7307 106.036 12.2613 106.036 11.728C106.036 11.1947 105.924 10.7253 105.7 10.32C105.476 9.91467 105.172 9.60533 104.788 9.392C104.404 9.168 103.972 9.056 103.492 9.056C103.012 9.056 102.58 9.168 102.196 9.392C101.812 9.60533 101.508 9.91467 101.284 10.32C101.06 10.7253 100.948 11.1947 100.948 11.728C100.948 12.2613 101.06 12.7307 101.284 13.136C101.508 13.5413 101.812 13.856 102.196 14.08C102.58 14.2933 103.012 14.4 103.492 14.4ZM113.965 7.36C115.223 7.36 116.183 7.664 116.845 8.272C117.517 8.86933 117.853 9.776 117.853 10.992V16H115.965V14.96C115.719 15.3333 115.367 15.6213 114.909 15.824C114.461 16.016 113.917 16.112 113.277 16.112C112.637 16.112 112.077 16.0053 111.597 15.792C111.117 15.568 110.743 15.264 110.477 14.88C110.221 14.4853 110.093 14.0427 110.093 13.552C110.093 12.784 110.375 12.1707 110.941 11.712C111.517 11.2427 112.418 11.008 113.645 11.008H115.853V10.88C115.853 10.2827 115.671 9.824 115.309 9.504C114.957 9.184 114.429 9.024 113.725 9.024C113.245 9.024 112.77 9.09867 112.301 9.248C111.842 9.39733 111.453 9.60533 111.133 9.872L110.349 8.416C110.797 8.07467 111.335 7.81333 111.965 7.632C112.594 7.45067 113.261 7.36 113.965 7.36ZM113.693 14.656C114.194 14.656 114.637 14.544 115.021 14.32C115.415 14.0853 115.693 13.7547 115.853 13.328V12.336H113.789C112.637 12.336 112.061 12.7147 112.061 13.472C112.061 13.8347 112.205 14.1227 112.493 14.336C112.781 14.5493 113.181 14.656 113.693 14.656ZM128.946 4.128V16H127.026V14.896C126.695 15.3013 126.284 15.6053 125.794 15.808C125.314 16.0107 124.78 16.112 124.194 16.112C123.372 16.112 122.631 15.9307 121.97 15.568C121.319 15.2053 120.807 14.6933 120.434 14.032C120.06 13.36 119.874 12.592 119.874 11.728C119.874 10.864 120.06 10.1013 120.434 9.44C120.807 8.77867 121.319 8.26667 121.97 7.904C122.631 7.54133 123.372 7.36 124.194 7.36C124.759 7.36 125.276 7.456 125.746 7.648C126.215 7.84 126.615 8.128 126.946 8.512V4.128H128.946ZM124.434 14.4C124.914 14.4 125.346 14.2933 125.73 14.08C126.114 13.856 126.418 13.5413 126.642 13.136C126.866 12.7307 126.978 12.2613 126.978 11.728C126.978 11.1947 126.866 10.7253 126.642 10.32C126.418 9.91467 126.114 9.60533 125.73 9.392C125.346 9.168 124.914 9.056 124.434 9.056C123.954 9.056 123.522 9.168 123.138 9.392C122.754 9.60533 122.45 9.91467 122.226 10.32C122.002 10.7253 121.89 11.1947 121.89 11.728C121.89 12.2613 122.002 12.7307 122.226 13.136C122.45 13.5413 122.754 13.856 123.138 14.08C123.522 14.2933 123.954 14.4 124.434 14.4ZM135.482 16.112C134.618 16.112 133.839 15.9253 133.146 15.552C132.453 15.1787 131.909 14.6613 131.514 14C131.13 13.328 130.938 12.5707 130.938 11.728C130.938 10.8853 131.13 10.1333 131.514 9.472C131.909 8.81067 132.453 8.29333 133.146 7.92C133.839 7.54667 134.618 7.36 135.482 7.36C136.357 7.36 137.141 7.54667 137.834 7.92C138.527 8.29333 139.066 8.81067 139.45 9.472C139.845 10.1333 140.042 10.8853 140.042 11.728C140.042 12.5707 139.845 13.328 139.45 14C139.066 14.6613 138.527 15.1787 137.834 15.552C137.141 15.9253 136.357 16.112 135.482 16.112ZM135.482 14.4C136.218 14.4 136.826 14.1547 137.306 13.664C137.786 13.1733 138.026 12.528 138.026 11.728C138.026 10.928 137.786 10.2827 137.306 9.792C136.826 9.30133 136.218 9.056 135.482 9.056C134.746 9.056 134.138 9.30133 133.658 9.792C133.189 10.2827 132.954 10.928 132.954 11.728C132.954 12.528 133.189 13.1733 133.658 13.664C134.138 14.1547 134.746 14.4 135.482 14.4ZM144.675 16.112C143.981 16.112 143.304 16.0213 142.643 15.84C141.981 15.6587 141.453 15.4293 141.059 15.152L141.827 13.632C142.211 13.888 142.669 14.096 143.203 14.256C143.747 14.4053 144.28 14.48 144.803 14.48C145.997 14.48 146.595 14.1653 146.595 13.536C146.595 13.2373 146.44 13.0293 146.131 12.912C145.832 12.7947 145.347 12.6827 144.675 12.576C143.971 12.4693 143.395 12.3467 142.947 12.208C142.509 12.0693 142.125 11.8293 141.795 11.488C141.475 11.136 141.315 10.6507 141.315 10.032C141.315 9.22133 141.651 8.576 142.323 8.096C143.005 7.60533 143.923 7.36 145.075 7.36C145.661 7.36 146.248 7.42933 146.835 7.568C147.421 7.696 147.901 7.872 148.275 8.096L147.507 9.616C146.781 9.18933 145.965 8.976 145.059 8.976C144.472 8.976 144.024 9.06667 143.715 9.248C143.416 9.41867 143.267 9.648 143.267 9.936C143.267 10.256 143.427 10.4853 143.747 10.624C144.077 10.752 144.584 10.8747 145.267 10.992C145.949 11.0987 146.509 11.2213 146.947 11.36C147.384 11.4987 147.757 11.7333 148.067 12.064C148.387 12.3947 148.547 12.864 148.547 13.472C148.547 14.272 148.2 14.912 147.507 15.392C146.813 15.872 145.869 16.112 144.675 16.112Z" fill="#F1F2F2"/>
</g>
<defs>
<clipPath id="clip0">
<rect width="149" height="31" fill="white"/>
</clipPath>
</defs>
</svg>
